<?xml version="1.0" encoding="UTF-8" standalone="no"?><!DOCTYPE svg PUBLIC "-//W3C//DTD SVG 1.1//EN" "http://www.w3.org/Graphics/SVG/1.1/DTD/svg11.dtd"><svg width="100%" height="100%" viewBox="0 0 850 300" version="1.1" xmlns="http://www.w3.org/2000/svg" xmlns:xlink="http://www.w3.org/1999/xlink" xml:space="preserve" xmlns:serif="http://www.serif.com/" style="fill-rule:evenodd;clip-rule:evenodd;stroke-linejoin:round;stroke-miterlimit:1.41421;"><g><text x="140.329px" y="204.688px" style="font-family:'Megrim';font-weight:500;font-size:157.538px;fill:#fff;">Spotilyse</text><g><path d="M129.853,31.902c-61.346,0 -111.151,52.918 -111.151,118.098c0,65.18 49.805,118.098 111.151,118.098c-51.516,-6.308 -93.34,-57.055 -93.34,-118.098c0,-61.043 41.824,-111.79 93.34,-118.098Z" style="fill:#fff;"/><path d="M129.145,66.887c-43.173,0 -78.224,37.242 -78.224,83.113c0,45.871 35.051,83.113 78.224,83.113c-38.394,-3.066 -69.566,-39.252 -69.566,-83.113c0,-43.861 31.172,-80.047 69.566,-83.113Z" style="fill:#fff;"/><path d="M132.983,91.075c-30.609,0 -55.459,26.403 -55.459,58.925c0,32.522 24.85,58.925 55.459,58.925c-28.548,-1.322 -51.725,-27.27 -51.725,-58.925c0,-31.655 23.177,-57.603 51.725,-58.925Z" style="fill:#fff;"/></g></g></svg>